<?xml version="1.0" standalone="no"?>
<!DOCTYPE svg PUBLIC "-//W3C//DTD SVG 20010904//EN"
 "http://www.w3.org/TR/2001/REC-SVG-20010904/DTD/svg10.dtd">
<svg version="1.0" xmlns="http://www.w3.org/2000/svg"
 width="500.000000pt" height="500.000000pt" viewBox="0 0 500.000000 500.000000"
 preserveAspectRatio="xMidYMid meet">

<g transform="translate(0.000000,500.000000) scale(0.100000,-0.100000)"
fill="#000000" stroke="none">
<path d="M2315 4274 c-107 -12 -281 -51 -385 -86 -380 -130 -704 -382 -923
-719 -191 -293 -287 -618 -287 -974 0 -167 14 -278 55 -441 115 -460 427 -868
845 -1108 516 -295 1154 -310 1687 -41 66 34 168 95 225 135 119 85 319 280
400 390 354 485 448 1075 259 1640 -152 454 -493 836 -927 1041 -238 112 -439
158 -719 163 -104 2 -208 2 -230 0z m-440 -775 c73 -32 180 -122 211 -177 11
-19 36 -42 56 -53 60 -31 209 -193 186 -202 -9 -3 -7 -11 8 -28 12 -13 19 -30
17 -36 -5 -13 -4 -14 35 -18 12 -1 26 -6 30 -10 4 -5 -2 -5 -13 -2 -11 4 -1
-9 23 -30 23 -21 48 -49 55 -62 7 -13 41 -42 77 -63 36 -22 71 -46 78 -55 6
-9 18 -18 26 -19 19 -3 66 -35 66 -45 0 -5 -6 -9 -12 -9 -10 0 -10 -2 0 -9 11
-7 10 -10 -3 -15 -28 -10 -35 -7 -35 18 0 14 -5 28 -11 32 -9 5 -10 -3 -5 -29
6 -32 3 -38 -20 -53 -25 -17 -28 -17 -100 19 -99 49 -98 56 15 75 25 4 47 14
49 21 4 11 0 12 -14 6 -11 -4 -37 -12 -59 -17 -22 -6 -59 -19 -83 -29 -23 -10
-53 -19 -67 -19 -13 0 -26 -4 -29 -9 -4 -5 -31 -17 -61 -27 -31 -9 -53 -19
-51 -22 3 -2 36 5 75 17 82 25 101 26 101 6 0 -10 -11 -15 -35 -15 -22 0 -35
-5 -35 -13 0 -8 -11 -20 -25 -27 -14 -7 -25 -17 -25 -22 0 -11 -47 -10 -54 1
-6 9 -46 22 -46 15 0 -3 10 -8 23 -13 18 -7 14 -9 -25 -12 -26 -2 -57 -1 -70
2 -15 5 -17 7 -6 8 30 2 109 48 93 55 -8 3 -15 12 -15 20 0 8 -4 17 -8 20 -5
3 -7 -7 -4 -23 3 -23 -2 -30 -35 -46 -74 -36 -99 -43 -183 -54 -90 -11 -127
-5 -183 32 -14 9 -29 17 -32 17 -14 0 -135 118 -135 132 0 4 -10 23 -23 41
-62 91 -117 242 -117 318 0 56 32 126 63 140 22 10 24 16 19 57 l-5 45 34 -6
c29 -5 26 -2 -21 21 -41 20 -50 27 -35 30 28 6 45 21 45 42 0 26 104 92 153
97 23 3 43 6 45 8 5 4 64 -11 97 -26z m985 -882 c100 -53 104 -57 84 -72 -13
-9 -14 -16 -5 -33 34 -64 1 -67 -122 -8 -108 51 -144 81 -126 102 9 11 7 14
-12 14 -31 0 -13 18 37 35 44 15 44 15 144 -38z m-1757 -8 c-27 -27 -133 -75
-133 -60 0 3 21 14 48 23 48 18 101 59 103 81 0 8 2 7 6 -2 3 -7 -8 -26 -24
-42z m107 32 c0 -4 -16 -7 -35 -8 -40 -1 -45 4 -12 16 22 9 47 4 47 -8z m1040
-90 c0 -12 -19 -18 -82 -27 -55 -7 -65 8 -15 24 41 13 97 15 97 3z m-1293 -7
c-3 -3 -12 -4 -19 -1 -8 3 -5 6 6 6 11 1 17 -2 13 -5z m1053 -3 c0 -6 12 -6
32 0 17 5 34 6 37 4 8 -9 -33 -34 -59 -37 -65 -5 -89 -4 -84 3 3 5 -1 9 -8 9
-10 0 -9 3 2 9 8 6 18 7 22 5 4 -3 16 0 25 5 23 13 33 14 33 2z m-1140 -49 c0
-8 -66 -33 -95 -35 -11 -1 -20 2 -20 8 0 5 9 8 20 7 11 -1 34 6 50 16 28 18
45 20 45 4z m917 12 c-3 -3 -12 -4 -19 -1 -8 3 -5 6 6 6 11 1 17 -2 13 -5z
m-240 -30 c-3 -3 -12 -4 -19 -1 -8 3 -5 6 6 6 11 1 17 -2 13 -5z m40 0 c-3 -3
-12 -4 -19 -1 -8 3 -5 6 6 6 11 1 17 -2 13 -5z m1203 -189 c7 -9 8 -15 2 -15
-5 0 -12 7 -16 15 -3 8 -4 15 -2 15 2 0 9 -7 16 -15z m58 -70 c-3 -3 -9 2 -12
12 -6 14 -5 15 5 6 7 -7 10 -15 7 -18z"/>
<path d="M1682 3370 c-13 -35 -5 -42 46 -42 42 0 69 26 50 50 -7 8 -23 12 -40
10 -15 -3 -28 -1 -28 4 0 20 -19 5 -28 -22z"/>
<path d="M1584 3365 c11 -8 27 -15 36 -15 9 0 22 -6 29 -12 10 -11 12 -9 9 7
-2 15 -10 19 -30 17 -14 -2 -29 2 -33 7 -3 6 -12 11 -18 11 -7 0 -3 -7 7 -15z"/>
<path d="M2182 3023 c11 -15 11 -16 -5 -10 -10 4 -16 3 -12 -2 3 -5 2 -11 -2
-14 -10 -5 12 1 30 8 8 4 14 -1 14 -10 0 -11 -6 -13 -20 -9 -12 4 -17 2 -13
-4 3 -5 19 -12 35 -15 17 -4 51 -22 76 -42 69 -52 89 -48 33 7 -18 18 -32 37
-30 43 1 7 -25 24 -59 38 -46 20 -58 22 -47 10z"/>
<path d="M2110 3016 c0 -2 7 -7 16 -10 8 -3 12 -2 9 4 -6 10 -25 14 -25 6z"/>
<path d="M2062 2978 c4 -11 111 -48 138 -48 10 0 7 7 -10 24 -18 18 -40 26
-78 29 -33 3 -52 1 -50 -5z"/>
<path d="M2328 2877 c7 -8 9 -17 5 -20 -3 -4 -1 -7 5 -7 18 0 14 27 -4 34 -13
5 -14 4 -6 -7z"/>
<path d="M2371 2804 c14 -17 59 -38 66 -30 5 4 -60 46 -72 46 -4 0 -1 -7 6
-16z"/>
<path d="M2146 2767 c3 -10 9 -15 12 -12 3 3 0 11 -7 18 -10 9 -11 8 -5 -6z"/>
</g>
</svg>
