<?xml version="1.0" standalone="no"?>
<!DOCTYPE svg PUBLIC "-//W3C//DTD SVG 20010904//EN"
 "http://www.w3.org/TR/2001/REC-SVG-20010904/DTD/svg10.dtd">
<svg version="1.0" xmlns="http://www.w3.org/2000/svg"
 width="577.000000pt" height="150.000000pt" viewBox="0 0 577.000000 150.000000"
 preserveAspectRatio="xMidYMid meet">

<g transform="translate(0.000000,150.000000) scale(0.100000,-0.100000)"
fill="#000000" stroke="none">
<path d="M2852 1452 l-163 -2 -10 -26 c-9 -26 -4 -478 7 -631 l6 -73 223 0
c186 0 224 2 228 15 4 8 9 77 13 155 l7 140 -132 0 -131 0 0 40 c0 22 -4 40
-10 40 -15 0 -13 -90 3 -91 6 0 62 0 124 1 73 1 114 -3 118 -10 11 -18 13 -84
2 -97 -12 -16 -79 -17 -95 -1 -7 7 -12 23 -12 36 0 13 -4 20 -10 17 -5 -3 -10
-19 -10 -36 l0 -29 -64 0 c-57 0 -67 3 -84 25 -12 15 -23 21 -27 15 -3 -5 -14
-10 -24 -10 -10 0 -24 -7 -31 -16 -8 -9 -25 -14 -44 -12 l-31 3 -3 118 c-2 98
0 118 13 123 19 8 20 24 0 24 -12 0 -15 20 -15 119 0 66 3 127 6 136 6 14 31
16 221 14 l215 -1 -7 -32 c-3 -17 -7 -35 -9 -41 -6 -32 -19 -36 -116 -34 -54
1 -103 -2 -109 -5 -6 -4 -11 -23 -11 -43 0 -27 -3 -33 -13 -25 -8 7 -32 8 -67
2 l-55 -8 50 -1 c70 -2 89 -19 86 -76 l-2 -45 119 0 120 0 11 93 c6 50 14 122
17 160 l7 67 -61 0 c-33 0 -66 1 -74 3 -7 1 -86 1 -176 -1z"/>
<path d="M4155 1438 c-15 -22 -17 -22 -29 -5 -12 15 -35 17 -234 17 l-220 0
-9 -37 -9 -38 -13 38 -13 37 -223 0 -223 0 -7 -67 c-8 -74 -8 -141 0 -450 l6
-203 99 0 99 0 23 73 23 72 3 -72 3 -73 99 0 99 0 14 48 14 47 14 -48 13 -48
96 3 95 3 17 35 c14 28 18 30 18 13 0 -50 6 -53 109 -53 l96 0 19 33 19 32 9
-32 9 -33 97 0 97 1 58 84 c31 46 57 93 57 104 0 16 8 20 42 23 40 3 45 7 96
78 29 41 56 76 60 78 4 1 30 -80 58 -180 l50 -183 93 -3 92 -3 84 78 c46 43
87 89 91 103 7 23 -4 61 -93 316 -2 6 14 33 37 60 34 41 40 56 40 94 0 25 -5
51 -12 58 -18 18 -474 17 -482 0 -3 -9 -8 -8 -16 5 -10 15 -32 17 -230 17
-216 0 -219 0 -235 -22z m-874 -15 c10 -11 14 -44 14 -102 0 -47 4 -91 8 -98
4 -6 26 -11 48 -11 46 0 34 18 -12 18 l-27 0 -1 86 c0 47 -3 94 -6 105 -6 18
1 19 148 19 l155 0 11 -31 c6 -18 11 -46 12 -63 0 -17 4 -40 8 -51 11 -26 -5
-55 -30 -55 -11 0 -22 -7 -25 -15 -4 -9 -19 -15 -35 -15 -16 0 -29 -4 -29 -10
0 -6 26 -10 59 -10 35 0 63 -5 67 -12 4 -6 11 -55 15 -107 5 -53 10 -109 11
-126 3 -29 2 -30 -44 -33 -44 -3 -48 -1 -49 20 l0 23 -9 -22 c-7 -18 -17 -23
-44 -23 -33 0 -35 3 -48 48 -8 26 -13 64 -10 85 4 36 5 37 46 38 22 0 49 4 59
8 10 4 -8 7 -43 6 -37 0 -64 5 -68 12 -4 7 -22 15 -41 18 l-33 6 4 -43 3 -43
-52 -3 c-29 -2 -53 -6 -53 -11 0 -4 16 -5 35 -3 19 2 46 1 60 -2 24 -6 26 -10
23 -59 l-3 -52 -69 -3 c-73 -3 -107 10 -73 29 11 7 17 22 17 45 0 21 -4 33
-10 29 -5 -3 -10 -16 -10 -28 -1 -12 -11 -35 -24 -50 l-23 -28 -6 165 c-4 91
-4 172 -1 180 3 9 16 16 28 16 11 0 28 5 36 10 11 7 4 10 -27 10 l-43 0 0 75
0 75 34 0 c19 0 39 -7 47 -17z m773 7 l62 0 27 -152 c15 -84 30 -174 33 -200
l7 -48 -49 5 c-27 4 -60 8 -74 10 -14 2 -32 0 -40 -6 -10 -6 3 -9 42 -9 31 0
59 -4 62 -9 3 -4 19 -11 35 -14 23 -5 30 -12 33 -39 9 -55 4 -58 -92 -58 -100
0 -100 0 -100 81 0 66 -13 89 -50 89 -16 0 -31 -4 -34 -8 -3 -5 1 -33 9 -63
24 -89 22 -99 -25 -99 -25 0 -40 5 -41 13 0 10 -2 10 -6 0 -3 -8 -25 -13 -58
-13 l-53 0 -7 83 c-6 81 -19 191 -36 317 -4 36 -8 80 -9 99 l0 34 152 -6 c83
-4 179 -7 212 -7z m559 -21 c9 -17 17 -39 17 -50 0 -17 -8 -19 -65 -19 -63 0
-65 1 -65 25 0 14 -5 25 -12 25 -6 0 -22 10 -35 22 -13 12 -23 17 -23 10 0 -6
11 -19 25 -30 42 -33 33 -52 -26 -52 l-51 0 7 -32 c15 -69 14 -68 146 -68 87
0 121 -3 123 -12 2 -7 9 -30 16 -51 6 -21 10 -41 7 -44 -3 -2 -36 -6 -74 -6
l-68 -2 0 42 c0 54 -11 64 -19 18 -6 -33 -41 -68 -62 -64 -20 3 -21 -5 -4 -94
9 -51 15 -98 12 -105 -5 -16 -178 -17 -188 0 -18 28 -89 417 -86 466 l4 52
201 0 202 0 18 -31z m360 -20 c4 -28 11 -56 16 -63 5 -6 21 -45 34 -86 14 -41
44 -128 67 -194 26 -73 38 -122 32 -128 -5 -5 -47 -8 -93 -6 -93 3 -99 8 -114
90 -8 45 8 57 84 59 29 1 54 6 57 11 4 6 -15 8 -42 7 -27 -2 -66 -2 -86 -1
l-37 2 -37 117 c-20 65 -39 136 -42 158 -5 35 -6 37 -12 15 -5 -22 -12 -25
-52 -28 -43 -3 -48 -1 -62 27 -9 16 -16 39 -16 51 0 19 5 20 149 20 l148 0 6
-51z m132 28 c8 -11 10 -28 6 -45 -6 -23 -13 -27 -49 -30 -37 -3 -44 0 -61 28
-10 17 -16 40 -14 51 5 17 13 20 55 18 35 -2 53 -8 63 -22z"/>
<path d="M3384 1313 c4 -15 8 -37 9 -48 1 -14 11 -21 30 -23 28 -3 28 -3 25
45 -3 47 -4 48 -37 51 -32 3 -33 2 -27 -25z"/>
<path d="M3800 1331 c0 -28 14 -41 46 -41 30 0 34 3 34 25 0 23 -4 25 -40 25
-22 0 -40 -4 -40 -9z"/>
<path d="M3950 1315 c0 -22 4 -25 40 -25 36 0 40 3 40 25 0 23 -4 25 -40 25
-36 0 -40 -2 -40 -25z"/>
<path d="M3880 1279 c0 -7 -8 -17 -17 -24 -14 -11 -15 -19 -8 -51 11 -43 45
-62 45 -25 0 16 6 21 24 21 35 0 56 -10 56 -26 0 -8 9 -14 20 -14 16 0 20 7
20 33 -1 36 -20 67 -43 67 -8 0 -17 7 -21 15 -6 18 -76 21 -76 4z"/>
<path d="M725 1393 c-10 -32 -26 -85 -36 -117 -11 -33 -19 -70 -19 -83 0 -13
-9 -41 -19 -61 -22 -41 -74 -178 -78 -204 -1 -9 34 -59 79 -112 l82 -96 101 0
c112 0 125 6 125 56 0 17 3 46 6 63 6 29 8 30 23 17 9 -9 32 -17 50 -18 27 -2
44 -14 85 -60 l50 -58 98 0 98 0 0 27 0 27 28 -27 c26 -25 34 -27 117 -27 68
0 93 4 107 16 16 16 18 16 24 0 5 -13 23 -16 109 -16 l102 0 7 38 c3 20 6 54
6 75 0 20 3 37 8 37 4 0 26 -34 50 -75 l42 -75 95 0 96 0 6 30 c8 43 17 44 32
4 l12 -34 214 0 c202 0 215 1 225 19 6 13 10 146 10 365 l0 346 -218 0 c-239
0 -245 -1 -254 -60 -4 -22 -6 -20 -18 18 l-13 42 -98 0 c-109 0 -105 3 -115
-86 -4 -30 -9 -54 -11 -54 -13 0 -53 61 -64 98 l-12 42 -93 0 c-81 0 -97 -3
-114 -20 l-20 -20 0 20 c0 19 -7 20 -109 20 -94 0 -110 -2 -116 -17 -6 -17 -7
-17 -20 0 -11 15 -26 17 -116 15 -102 -3 -104 -3 -107 -28 -2 -14 -8 -29 -13
-35 -5 -5 -9 -17 -9 -27 0 -13 -8 -18 -31 -18 -23 0 -32 -5 -36 -21 -5 -19 -7
-19 -34 7 -16 15 -29 33 -29 39 0 6 -17 28 -38 48 l-38 37 -96 0 -96 0 -17
-57z m202 25 c-2 -7 -10 -30 -18 -50 -7 -21 -21 -41 -32 -44 -35 -11 -9 -16
29 -5 43 12 60 0 43 -30 -5 -10 -9 -27 -9 -38 0 -19 6 -21 60 -21 33 0 60 -3
60 -7 0 -5 37 -7 82 -6 46 1 85 -3 88 -7 3 -5 21 -10 39 -12 18 -1 34 -5 36
-8 7 -12 -64 -273 -77 -282 -7 -4 -49 -7 -93 -6 -78 3 -80 4 -83 29 -2 14 6
59 17 100 26 91 26 89 -3 89 -19 0 -27 -10 -45 -60 l-22 -60 -63 0 -63 0 8 48
c12 70 11 72 -16 72 -18 0 -29 -9 -41 -32 -9 -18 -22 -36 -28 -40 -17 -12 -61
-9 -75 5 -10 10 -12 8 -9 -8 2 -16 12 -21 45 -23 24 -2 44 -9 47 -18 4 -11 -5
-14 -43 -14 -31 0 -51 5 -54 13 -2 6 -8 9 -12 5 -4 -4 -5 -14 -2 -23 5 -10 20
-15 52 -15 37 0 45 -3 45 -18 0 -39 -32 -53 -116 -50 -95 4 -94 0 -44 143 32
91 37 100 63 103 24 3 27 0 28 -25 l0 -28 10 24 c13 34 4 51 -26 51 -28 0 -29
6 -12 70 17 63 21 67 72 74 24 4 48 12 51 18 5 8 -1 9 -17 5 -26 -7 -69 1 -69
13 0 4 7 24 15 44 l15 36 86 0 c65 0 85 -3 81 -12z m423 -25 c-14 -71 -41
-151 -55 -163 -9 -8 -28 -10 -49 -6 -35 7 -35 7 -38 64 -3 51 -5 57 -26 60
-16 3 -22 8 -18 19 3 8 9 26 12 39 6 23 10 24 94 24 l87 0 -7 -37z m250 8 c0
-50 -17 -81 -44 -81 -14 0 -28 -4 -31 -10 -4 -6 7 -10 25 -10 26 0 30 -3 25
-22 -2 -13 -19 -93 -35 -178 -17 -85 -35 -165 -40 -177 -13 -32 -53 -30 -70 2
-14 26 -32 24 -28 -3 4 -24 -79 -31 -88 -7 -5 12 77 375 112 498 5 14 18 17
90 17 l84 0 0 -29z m240 -11 c0 -30 -4 -40 -16 -40 -8 0 -12 -4 -9 -10 3 -5
22 -10 41 -10 32 0 34 -2 34 -34 0 -19 -4 -38 -10 -41 -19 -12 -10 -25 19 -25
34 0 46 13 56 57 5 27 11 32 28 29 57 -12 141 -16 127 -6 -8 5 -25 10 -37 10
-12 0 -25 5 -28 10 -3 6 -16 10 -29 10 -33 0 -60 33 -52 65 6 24 9 25 93 25
l86 0 -6 -117 c-6 -107 -29 -317 -43 -385 -8 -40 -39 -37 -49 5 l-8 32 -6 -30
c-6 -30 -7 -30 -71 -30 -53 0 -64 3 -61 15 2 8 6 40 10 70 5 48 9 55 26 52 19
-3 52 -7 87 -10 11 -1 18 -13 20 -34 3 -26 6 -29 12 -15 5 9 5 28 2 41 -5 21
-13 25 -58 30 -138 14 -138 14 -138 57 0 30 4 39 18 40 14 0 14 2 -3 9 -48 20
-61 13 -76 -42 -12 -43 -19 -53 -34 -51 -11 1 -51 6 -88 9 -38 4 -71 12 -73
19 -4 10 34 208 57 298 l10 37 84 0 85 0 0 -40z m800 6 c0 -66 0 -66 -130 -66
l-117 0 -6 -32 c-3 -18 -8 -41 -12 -50 -6 -16 0 -18 54 -18 l61 0 0 -30 c0
-38 18 -40 22 -2 3 25 6 27 58 30 l55 3 -2 -46 c-1 -24 -5 -49 -8 -55 -9 -15
-105 -13 -105 2 0 9 -3 9 -12 0 -7 -7 -36 -12 -65 -12 -57 0 -61 -4 -66 -74
l-2 -28 108 1 c59 0 107 -3 107 -9 0 -5 -15 -11 -32 -13 -29 -3 -28 -4 8 -5
30 -2 44 3 48 14 16 41 25 -16 17 -98 -1 -5 -23 -8 -51 -8 -46 0 -50 2 -56 28
-10 47 -11 48 -19 9 l-7 -38 -92 3 -91 3 -16 35 c-10 21 -15 48 -11 72 l5 38
-53 0 -52 0 7 98 c9 134 7 129 71 137 63 8 63 20 1 20 l-42 0 -3 49 c-5 80
-18 76 218 76 l210 0 0 -34z m-1450 -116 l0 -50 -65 0 c-37 0 -65 4 -65 10 0
6 5 10 10 10 6 0 9 3 8 8 -2 4 3 22 11 40 12 29 17 32 57 32 l44 0 0 -50z
m528 -227 c49 -8 68 -42 56 -101 -7 -39 -13 -48 -33 -50 -13 -2 -35 2 -49 10
-20 10 -26 10 -29 1 -3 -8 -24 -13 -55 -13 -48 0 -50 1 -43 23 3 12 11 45 16
72 16 80 14 78 62 70 23 -3 57 -9 75 -12z m530 -144 c-7 -5 -29 -9 -49 -9
l-36 0 -1 53 c-2 66 4 75 53 79 l40 3 3 -59 c2 -41 -1 -62 -10 -67z"/>
<path d="M956 582 c-2 -4 -10 -54 -16 -111 -6 -56 -14 -109 -17 -117 -8 -20
-65 -33 -173 -36 l-95 -3 4 60 c9 161 8 170 -19 170 -24 0 -25 -1 -46 -178
-12 -97 -27 -199 -34 -226 -13 -53 -2 -91 25 -91 22 0 32 29 38 114 3 43 10
83 15 88 15 15 253 31 266 18 6 -6 6 -41 -1 -102 -6 -51 -9 -96 -6 -100 7 -12
40 -9 50 5 6 6 13 57 17 112 3 55 16 161 28 236 12 74 19 143 15 152 -6 17
-42 23 -51 9z"/>
<path d="M2052 568 c-7 -7 -12 -29 -12 -49 0 -43 -44 -313 -57 -347 -8 -21
-12 -19 -54 40 -66 92 -126 197 -140 246 -23 80 -79 73 -79 -10 0 -22 -12 -97
-26 -167 -15 -69 -30 -142 -34 -162 -7 -37 3 -79 19 -79 24 0 38 33 44 98 9
114 39 259 49 242 22 -38 118 -187 162 -250 42 -61 52 -71 75 -68 23 3 26 8
29 43 4 55 39 253 62 351 10 45 16 91 13 102 -6 24 -32 29 -51 10z"/>
<path d="M3636 552 c-8 -15 -51 -75 -96 -132 -45 -57 -88 -117 -96 -132 -24
-47 -42 -35 -85 56 -21 46 -39 91 -39 100 0 10 -7 31 -16 47 -13 25 -20 30
-47 27 -31 -3 -32 -4 -58 -103 -78 -291 -82 -327 -40 -338 31 -8 41 12 41 81
0 52 34 224 56 282 4 9 18 -19 33 -65 32 -94 75 -171 104 -187 25 -13 28 -10
152 160 42 57 78 102 80 100 3 -2 -2 -62 -11 -134 -22 -181 -10 -274 35 -274
10 0 24 7 31 15 10 13 10 19 -4 33 -12 14 -16 38 -16 92 0 93 18 293 32 344 7
30 7 41 -4 47 -23 15 -37 10 -52 -19z"/>
<path d="M340 541 c-93 -29 -192 -112 -240 -202 -26 -49 -34 -78 -38 -134 -5
-87 11 -124 65 -150 32 -16 47 -17 99 -8 33 6 89 25 123 42 118 58 244 176
210 197 -6 3 -25 -7 -42 -23 -103 -97 -243 -173 -318 -173 -64 0 -84 24 -84
99 1 73 37 151 98 213 90 90 242 137 177 55 -27 -35 -26 -57 4 -57 17 0 31 10
45 34 28 45 26 70 -5 95 -28 22 -51 25 -94 12z"/>
<path d="M1372 538 c-5 -7 -22 -38 -37 -68 -15 -30 -53 -91 -84 -135 -31 -44
-82 -115 -111 -157 -30 -43 -63 -80 -72 -84 -24 -7 -23 -31 2 -39 34 -11 58 4
105 66 26 32 49 59 53 60 4 0 54 10 112 22 l105 22 40 -80 c30 -60 45 -80 60
-80 28 0 31 38 5 73 -28 38 -131 315 -137 370 -5 42 -21 54 -41 30z m33 -183
c14 -37 22 -71 18 -75 -11 -10 -150 -43 -163 -38 -6 2 17 45 51 96 34 51 63
91 65 89 2 -2 15 -34 29 -72z"/>
<path d="M3015 534 c-26 -8 -84 -13 -164 -12 -105 1 -126 -2 -136 -16 -7 -9
-15 -60 -19 -114 -4 -53 -16 -139 -27 -191 -12 -51 -18 -105 -14 -118 6 -24 9
-25 48 -19 23 3 109 15 190 25 145 19 177 30 177 57 0 23 -18 25 -79 9 -32 -8
-108 -18 -167 -22 l-107 -6 6 49 c12 102 10 101 139 109 128 8 148 15 148 52
0 22 -3 24 -22 19 -39 -12 -141 -26 -186 -26 -51 0 -57 10 -47 85 l6 55 92 0
c110 0 217 16 236 35 17 17 7 45 -16 44 -10 -1 -36 -7 -58 -15z"/>
<path d="M4165 534 c-31 -9 -91 -14 -160 -13 -60 1 -118 -2 -127 -6 -22 -9
-25 -21 -33 -135 -3 -52 -15 -135 -26 -184 -10 -49 -16 -100 -12 -113 5 -23 9
-25 47 -19 22 3 107 14 189 24 143 19 177 30 177 58 0 23 -18 25 -79 9 -32 -8
-107 -18 -165 -22 l-106 -6 1 24 c0 13 6 47 13 74 l11 50 128 11 c70 6 132 15
138 21 6 6 8 21 4 33 -5 17 -12 20 -28 16 -89 -26 -225 -34 -232 -13 -2 6 -1
37 3 67 l7 55 125 6 c157 8 212 21 208 52 -4 27 -20 29 -83 11z"/>
<path d="M5675 534 c-32 -9 -90 -14 -164 -12 -144 2 -145 1 -155 -139 -4 -54
-15 -138 -26 -187 -23 -115 -16 -141 38 -132 20 3 96 13 167 21 164 21 189 27
193 49 7 33 -12 38 -76 22 -33 -9 -108 -19 -168 -23 l-107 -6 7 39 c4 21 11
55 17 75 l9 36 112 8 c134 8 161 16 156 48 -3 25 -7 25 -110 7 -36 -6 -84 -10
-105 -8 l-38 3 0 65 0 65 125 6 c69 3 142 10 163 14 38 7 58 29 50 53 -6 15
-24 14 -88 -4z"/>
<path d="M4950 521 c-5 -11 -10 -36 -10 -55 0 -20 -13 -114 -30 -211 -16 -97
-30 -180 -30 -185 0 -6 10 -15 23 -21 18 -8 43 -5 108 12 46 12 115 25 153 28
51 4 72 11 80 24 26 41 -31 43 -192 6 -46 -10 -88 -19 -94 -19 -15 0 -6 85 28
262 23 121 25 149 15 162 -18 22 -38 20 -51 -3z"/>
<path d="M2457 510 c-70 -16 -254 -40 -298 -40 -14 0 -10 -37 4 -43 8 -3 53 0
101 5 48 6 89 8 91 6 3 -2 -3 -60 -11 -129 -9 -68 -14 -146 -11 -172 4 -51 29
-89 46 -72 6 6 12 78 15 160 3 83 9 166 14 185 10 47 46 63 144 65 87 2 109
13 83 39 -21 21 -67 20 -178 -4z"/>
<path d="M4405 517 c-64 -17 -95 -34 -95 -52 0 -10 10 -15 30 -15 l30 0 0 -62
c0 -35 -7 -101 -15 -148 -21 -120 -20 -157 6 -170 38 -21 48 -7 42 57 -3 35 2
101 12 160 13 77 14 110 6 139 -6 22 -7 42 -2 47 5 5 44 10 88 10 88 2 136
-16 155 -59 10 -20 8 -29 -8 -51 -26 -35 -111 -82 -165 -91 -35 -6 -45 -12
-47 -30 -3 -20 1 -22 38 -22 35 0 54 -10 143 -78 115 -88 149 -104 187 -90 25
10 25 10 4 24 -11 8 -69 48 -128 90 l-108 76 50 33 c27 19 59 46 71 61 41 52
18 124 -52 160 -41 22 -177 27 -242 11z"/>
</g>
</svg>
